# xmcd
#
# Track frame offsets: 
#        150
#        18388
#        34148
#        51830
#        67755
#        85223
#        102540
#        121863
#        139293
#
# Disc length: 2118 seconds
#
# Revision: 2
# Processed by: cddbd v1.4PL0 Copyright (c) Steve Scherf et al.
# Submitted via: ExactAudioCopy v0.90b3
#
DISCID=75084409
DTITLE=Baillie and The Boys - Baillie and The Boys
DYEAR=1900
DGENRE=Country
TTITLE0=Fire In The Wire
TTITLE1=Oh Heart
TTITLE2=Waitin' Out The Storm
TTITLE3=You Fool
TTITLE4=Heartless Night
TTITLE5=He's Letting Go
TTITLE6=Slow All Night
TTITLE7=Wilder Days
TTITLE8=This Is Where I Came In
EXTD=
EXTT0=
EXTT1=
EXTT2=
EXTT3=
EXTT4=
EXTT5=
EXTT6=
EXTT7=
EXTT8=
PLAYORDER=
